<?xml version="1.0" encoding="UTF-8"?>
<!DOCTYPE svg PUBLIC "-//W3C//DTD SVG 1.1//EN" "http://www.w3.org/Graphics/SVG/1.1/DTD/svg11.dtd">
<!-- Creator: CorelDRAW 2017 -->
<svg xmlns="http://www.w3.org/2000/svg" xml:space="preserve" width="0.595445in" height="0.520717in" version="1.1" style="shape-rendering:geometricPrecision; text-rendering:geometricPrecision; image-rendering:optimizeQuality; fill-rule:evenodd; clip-rule:evenodd"
viewBox="0 0 29.89 26.14"
 xmlns:xlink="http://www.w3.org/1999/xlink">
 <defs>
  <style type="text/css">
   <![CDATA[
    .fil0 {fill:#333333;fill-rule:nonzero}
   ]]>
  </style>
 </defs>
 <g id="Layer_x0020_1">
  <metadata id="CorelCorpID_0Corel-Layer"/>
  <path class="fil0" d="M24.57 2.5c-0.53,-0.29 -1.09,-0.52 -1.68,-0.67 -0.56,-0.15 -1.17,-0.22 -1.79,-0.22 -1.09,0 -2.13,0.24 -3.05,0.68 -0.96,0.45 -1.81,1.11 -2.48,1.93l-0.62 0.75 -0.62 -0.75c-0.68,-0.81 -1.52,-1.47 -2.49,-1.93 -0.92,-0.43 -1.96,-0.68 -3.06,-0.68 -0.63,0 -1.22,0.08 -1.79,0.22 -0.58,0.15 -1.15,0.38 -1.68,0.67 -1.13,0.62 -2.07,1.54 -2.72,2.65 -0.63,1.07 -0.99,2.31 -0.99,3.65 0,0.39 0.03,0.76 0.09,1.12 0.06,0.37 0.15,0.73 0.27,1.09l0.02 0.08c1.15,5.19 10.81,11.75 12.97,13.16 2.15,-1.41 11.8,-7.96 12.96,-13.16l0.02 -0.08c0.12,-0.36 0.21,-0.73 0.27,-1.09 0.06,-0.35 0.09,-0.73 0.09,-1.12 0,-1.33 -0.36,-2.58 -0.99,-3.65 -0.65,-1.11 -1.6,-2.03 -2.72,-2.65zm-1.28 -2.22c0.73,0.19 1.42,0.46 2.05,0.81 1.38,0.77 2.54,1.89 3.33,3.24 0.77,1.31 1.22,2.83 1.22,4.46 0,0.46 -0.04,0.92 -0.11,1.37 -0.08,0.47 -0.19,0.92 -0.33,1.34 -1.53,6.48 -14.04,14.34 -14.08,14.36l-0.42 0.27 -0.42 -0.27c-0.04,-0.02 -12.56,-7.89 -14.09,-14.36 -0.14,-0.42 -0.25,-0.87 -0.33,-1.34 -0.07,-0.45 -0.11,-0.91 -0.11,-1.37 0,-1.63 0.44,-3.16 1.22,-4.47 0.8,-1.35 1.95,-2.47 3.33,-3.24 0.64,-0.35 1.33,-0.63 2.06,-0.82 0.71,-0.18 1.44,-0.28 2.18,-0.28 1.33,0 2.6,0.3 3.74,0.83 0.9,0.42 1.72,0.99 2.42,1.68 0.7,-0.69 1.51,-1.26 2.41,-1.68 1.14,-0.53 2.4,-0.83 3.74,-0.83 0.75,0 1.48,0.1 2.19,0.28z"/>
 </g>
</svg>
