<svg xmlns="http://www.w3.org/2000/svg" width="21.451" height="21.06" viewBox="0 0 21.451 21.06">
  <g id="main_nav_bag" transform="translate(-2.4 -2.4)">
    <g id="Group_109" data-name="Group 109" transform="translate(3 3)">
      <path id="Path_354" data-name="Path 354" stroke="#333" d="M16.442,8.879H5.594c-.289,0-.442.133-.442.421L3,22.337c0,.288.155.523.442.523H22.821M9.822,12.6V6.274A3.29,3.29,0,0,1,13.131,3a3.323,3.323,0,0,1,3.31,3.313v2.4M22.811,22.86c.282,0,.439-.235.439-.523L21.107,9.3c0-.288-.154-.421-.441-.421H16.44" fill="none" transform="translate(-3 -3)" stroke-linecap="round" stroke-linejoin="round" stroke-width="1.2" fill-rule="evenodd"/>
      <path id="Path_355" data-name="Path 355" d="M11.044,12.52a1.523,1.523,0,1,1-1.522-1.467,1.523,1.523,0,0,1,1.522,1.467" transform="translate(-2.77 -2.629)" fill="#333" fill-rule="evenodd"/>
    </g>
  </g>
</svg>
